<svg width="195" height="195" viewBox="0 0 195 195" fill="none" xmlns="http://www.w3.org/2000/svg">
<circle cx="97.5" cy="97.5" r="95" fill="white" stroke="#466D76" stroke-width="5"/>
<path d="M143.999 86.5C166.5 94.5 176.098 75.5022 170.679 92.0431C169.145 96.7264 163.615 102.5 163.615 102.5L148.517 118.407L113.965 126.695L68.5185 117.916L42.673 98.0443C42.673 98.0443 50.1764 90.0658 57.1648 89.6721C65.0115 89.2301 63.3472 101.853 77.5 94.5C83.721 91.2681 86.4995 96.1474 104 87.6222C114.497 82.5088 129.866 81.4752 143.999 86.5Z" fill="#629CAA"/>
<path d="M41.9375 56.5C56.3954 56.5 62.7154 59.1618 72.8516 69.5C79.7114 76.4965 84.4684 87.001 91.7988 93.5C104.77 105 111.124 105 119.223 105C132.685 105 141.382 105.556 151.633 100C170.081 90 169.52 78.6716 176.563 88.5C180.501 93.9943 181.767 114.411 179.314 120.622C169.243 156.329 136.429 182.5 97.5 182.5C50.5558 182.5 12.5 144.444 12.5 97.5C12.5 87.346 14.2811 77.6082 17.5469 68.5811L17.5 68.5C17.5 68.5 24.9847 56.5001 41.9375 56.5Z" fill="#7ECDE0"/>
</svg>
